<svg
  width="1823"
  height="393"
  viewBox="0 0 1823 393"
  fill="currentColor"
  xmlns="http://www.w3.org/2000/svg"
 >
  <path d="M1680.72 360.065C1667.44 349.241 1661.04 333.497 1661.04 312.341V81.5945C1661.04 60.9306 1667.44 45.6787 1680.72 34.8548C1694.01 24.0308 1711.72 18.6189 1734.35 18.6189C1756.98 18.6189 1775.19 24.0308 1788.47 34.8548C1801.75 45.6787 1808.64 60.9306 1808.64 81.5945V159.33C1808.64 161.298 1807.66 161.79 1806.18 161.79H1754.52C1752.55 161.79 1752.06 161.298 1752.06 159.33V84.5464C1752.06 78.6425 1750.59 74.7065 1748.13 71.7545C1745.17 68.8026 1740.75 67.3266 1734.84 67.3266C1728.45 67.3266 1724.02 68.8026 1721.56 71.7545C1718.61 74.7065 1717.62 78.6425 1717.62 84.5464V309.881C1717.62 315.785 1718.61 320.213 1721.56 323.165C1724.02 326.117 1728.45 327.101 1734.84 327.101C1740.75 327.101 1745.17 326.117 1748.13 323.165C1750.59 320.213 1752.06 315.785 1752.06 309.881V228.209C1752.06 226.733 1752.55 225.749 1754.52 225.749H1806.18C1807.66 225.749 1808.64 226.733 1808.64 228.209V312.341C1808.64 333.497 1801.75 349.241 1788.96 360.065C1775.68 370.889 1757.47 375.808 1734.35 375.808C1711.72 375.808 1694.01 370.889 1680.72 360.065Z" fill="#0C0A09" />
  <path d="M1574.6 368.44V26.0102C1574.6 24.5342 1575.09 23.5502 1577.06 23.5502H1628.72C1630.2 23.5502 1631.18 24.5342 1631.18 26.0102V368.44C1631.18 370.408 1630.2 370.9 1628.72 370.9H1577.06C1575.09 370.9 1574.6 370.408 1574.6 368.44Z" fill="#0C0A09" />
  <path d="M1418.17 360.065C1404.89 349.241 1398.49 333.497 1398.49 312.341V249.857C1398.49 248.381 1398.99 247.397 1400.95 247.397H1452.61C1454.09 247.397 1455.07 248.381 1455.07 249.857V309.881C1455.07 315.785 1456.06 320.213 1459.01 323.165C1461.47 326.117 1465.9 327.101 1472.29 327.101C1478.2 327.101 1482.63 326.117 1485.58 323.165C1488.04 320.213 1489.51 315.785 1489.51 309.881V263.633C1489.51 253.301 1486.07 244.445 1480.17 237.065C1473.77 230.177 1463.93 220.83 1450.15 210.006C1437.85 200.658 1428.51 192.786 1422.11 186.882C1415.71 180.978 1410.3 173.598 1405.38 164.25C1400.46 154.902 1398.49 143.586 1398.49 130.794V81.5945C1398.49 60.9306 1404.89 45.6787 1418.67 34.8548C1431.95 24.0308 1449.66 18.6189 1471.8 18.6189C1494.43 18.6189 1512.64 24.0308 1525.92 34.8548C1539.21 45.6787 1546.09 60.9306 1546.09 81.5945V141.618C1546.09 143.586 1545.11 144.078 1543.63 144.078H1491.97C1490.01 144.078 1489.51 143.586 1489.51 141.618V84.5464C1489.51 78.6425 1488.04 74.2145 1485.58 71.2625C1482.63 68.3106 1478.2 66.8346 1472.29 66.8346C1465.9 66.8346 1461.47 68.3106 1459.01 71.2625C1456.06 74.2145 1455.07 78.6425 1455.07 84.5464V123.414C1455.07 133.254 1458.03 141.126 1463.93 148.014C1469.83 154.902 1479.18 163.266 1492.47 173.106C1503.78 181.962 1513.13 189.342 1520.02 196.23C1526.91 203.118 1533.3 210.99 1538.22 220.83C1543.14 230.669 1546.09 241.985 1546.09 254.777V312.341C1546.09 333.497 1539.21 349.241 1525.92 360.065C1512.64 370.889 1494.93 375.808 1472.79 375.808C1449.17 375.808 1430.97 370.889 1418.17 360.065Z" fill="#0C0A09" />
  <path d="M1250.74 360.065C1237.45 349.241 1231.06 333.497 1231.06 312.341V249.857C1231.06 248.381 1231.55 247.397 1233.52 247.397H1285.18C1286.65 247.397 1287.64 248.381 1287.64 249.857V309.881C1287.64 315.785 1288.62 320.213 1291.57 323.165C1294.03 326.117 1298.46 327.101 1304.86 327.101C1310.76 327.101 1315.19 326.117 1318.14 323.165C1320.6 320.213 1322.08 315.785 1322.08 309.881V263.633C1322.08 253.301 1318.63 244.445 1312.73 237.065C1306.33 230.177 1296.49 220.83 1282.72 210.006C1270.42 200.658 1261.07 192.786 1254.67 186.882C1248.28 180.978 1242.87 173.598 1237.95 164.25C1233.03 154.902 1231.06 143.586 1231.06 130.794V81.5945C1231.06 60.9306 1237.45 45.6787 1251.23 34.8548C1264.51 24.0308 1282.23 18.6189 1304.37 18.6189C1327 18.6189 1345.2 24.0308 1358.48 34.8548C1371.77 45.6787 1378.66 60.9306 1378.66 81.5945V141.618C1378.66 143.586 1377.67 144.078 1376.2 144.078H1324.54C1322.57 144.078 1322.08 143.586 1322.08 141.618V84.5464C1322.08 78.6425 1320.6 74.2145 1318.14 71.2625C1315.19 68.3106 1310.76 66.8346 1304.86 66.8346C1298.46 66.8346 1294.03 68.3106 1291.57 71.2625C1288.62 74.2145 1287.64 78.6425 1287.64 84.5464V123.414C1287.64 133.254 1290.59 141.126 1296.49 148.014C1302.4 154.902 1311.75 163.266 1325.03 173.106C1336.34 181.962 1345.69 189.342 1352.58 196.23C1359.47 203.118 1365.86 210.99 1370.78 220.83C1375.7 230.669 1378.66 241.985 1378.66 254.777V312.341C1378.66 333.497 1371.77 349.241 1358.48 360.065C1345.2 370.889 1327.49 375.808 1305.35 375.808C1281.73 375.808 1263.53 370.889 1250.74 360.065Z" fill="#0C0A09" />
  <path d="M1131.74 17.2093C1091.58 17.7054 1063.51 39.256 1063.52 73.2445C1063.52 160.257 1063.52 283.393 1063.52 370.405C1080.46 370.527 1097.4 370.666 1114.34 370.832C1114.34 345.678 1114.34 284.408 1114.34 259.254C1125.79 259.306 1137.24 259.367 1148.69 259.437C1148.69 284.652 1148.69 344.537 1148.69 369.752C1165.63 369.944 1182.57 370.161 1199.5 370.405C1199.5 282.549 1199.5 160.022 1199.5 72.1565C1199.5 37.7938 1171.43 16.7132 1131.76 17.218L1131.74 17.2093ZM1114.33 221.061C1114.33 173.425 1114.33 125.789 1114.33 78.1534C1114.33 65.9246 1120.62 58.0041 1131.74 57.8996C1142.88 57.7952 1148.68 65.6199 1148.68 77.8836C1148.68 125.633 1148.68 173.382 1148.68 221.14C1137.23 221.105 1125.78 221.079 1114.33 221.053V221.061Z" fill="#0C0A09" />
  <path d="M1038.9 325.144V367.948C1038.9 369.916 1037.92 370.9 1036.44 370.9H917.378C915.41 370.9 914.918 370.408 914.918 368.44V26.0102C914.918 24.5342 915.41 23.5502 917.378 23.5502H969.038C970.514 23.5502 971.498 24.5342 971.498 26.0102V322.192H1036.44C1037.92 322.192 1038.9 323.176 1038.9 325.144Z" fill="#0C0A09" />
  <path d="M758.895 360.065C745.611 349.241 739.215 333.497 739.215 312.341V81.5945C739.215 60.9306 745.611 45.6787 758.895 34.8548C772.179 24.0308 789.89 18.6189 812.522 18.6189C835.154 18.6189 853.358 24.0308 866.642 34.8548C879.926 45.6787 886.814 60.9306 886.814 81.5945V159.33C886.814 161.298 885.83 161.79 884.354 161.79H832.694C830.726 161.79 830.234 161.298 830.234 159.33V84.5464C830.234 78.6425 828.758 74.7065 826.298 71.7545C823.346 68.8026 818.918 67.3266 813.014 67.3266C806.618 67.3266 802.19 68.8026 799.73 71.7545C796.778 74.7065 795.794 78.6425 795.794 84.5464V309.881C795.794 315.785 796.778 320.213 799.73 323.165C802.19 326.117 806.618 327.101 813.014 327.101C818.918 327.101 823.346 326.117 826.298 323.165C828.758 320.213 830.234 315.785 830.234 309.881V228.209C830.234 226.733 830.726 225.749 832.694 225.749H884.354C885.83 225.749 886.814 226.733 886.814 228.209V312.341C886.814 333.497 879.926 349.241 867.134 360.065C853.85 370.889 835.646 375.808 812.522 375.808C789.89 375.808 772.179 370.889 758.895 360.065Z" fill="#0C0A09" />
  <path d="M595.318 71.7658V168.689H650.422C651.898 168.689 652.882 169.673 652.882 171.149V214.937C652.882 216.905 651.898 217.397 650.422 217.397H595.318V322.192H660.262C661.738 322.192 662.722 323.176 662.722 324.652V368.44C662.722 370.408 661.738 370.9 660.262 370.9H541.199C539.231 370.9 538.739 370.408 538.739 368.44V26.0102C538.739 24.5342 539.231 23.5502 541.199 23.5502H660.262C661.738 23.5502 662.722 24.5342 662.722 26.0102V69.3059C662.722 71.2738 661.738 71.7658 660.262 71.7658H595.318Z" fill="#0C0A09" />
  <path d="M378.177 359.584C364.893 348.76 358.497 333.016 358.497 311.86V26.0102C358.497 24.5342 358.989 23.5502 360.957 23.5502H412.617C414.093 23.5502 415.077 24.5342 415.077 26.0102V308.908C415.077 315.304 416.061 319.732 419.013 322.684C421.473 325.636 425.901 326.62 432.297 326.62C438.201 326.62 442.628 325.636 445.58 322.684C448.04 319.732 449.516 315.304 449.516 308.908V26.0102C449.516 24.5342 450.008 23.5502 451.976 23.5502H503.636C505.112 23.5502 506.096 24.5342 506.096 26.0102V311.86C506.096 333.016 499.208 348.76 486.416 359.584C473.132 370.408 454.928 375.328 431.805 375.328C409.173 375.328 391.461 370.408 378.177 359.584Z" fill="#0C0A09" />
  <path d="M336.407 370.9H280.811C279.335 370.9 278.351 370.408 277.859 369.424C275.399 365.98 274.415 359.584 274.415 350.728V235.601C274.415 229.205 273.431 224.777 271.955 222.317C270.479 220.349 267.035 218.873 261.131 218.873H243.911V368.44C243.911 370.408 242.927 370.9 241.451 370.9H189.792C187.824 370.9 187.332 370.408 187.332 368.44V26.0102C187.332 24.5342 187.824 23.5502 189.792 23.5502H256.703C279.827 23.5502 298.031 28.9621 310.823 39.2941C323.615 49.626 330.011 64.8779 330.011 85.5417V146.549C330.011 157.865 327.551 167.705 323.123 175.577C318.203 183.941 311.315 189.353 302.459 191.813V194.765C311.807 196.733 318.695 200.177 323.615 206.081C328.535 211.985 330.995 220.841 330.995 231.665V324.16C330.995 335.476 330.995 343.84 331.979 349.744C332.471 355.648 334.439 361.552 337.883 367.948C338.866 369.916 338.374 370.9 336.407 370.9ZM274.415 88.9857C274.415 83.0818 272.939 79.1458 270.479 76.1938C267.527 73.7338 263.099 72.2578 257.195 72.2578H243.911V171.641H257.195C263.099 171.641 267.527 170.657 270.479 167.705C272.939 165.245 274.415 160.817 274.415 154.913V88.9857Z" fill="#0C0A09" />
  <path d="M173.407 26.5021V69.3059C173.407 71.2738 172.423 71.7658 170.947 71.7658H125.192V368.44C125.192 370.408 124.208 370.9 122.732 370.9H71.0721C69.1041 370.9 68.6121 370.408 68.6121 368.44V71.7658H22.8565C20.8885 71.7658 20.3965 71.2738 20.3965 69.3059V26.5021C20.3965 24.5342 20.8885 23.5502 22.8565 23.5502H170.947C172.423 23.5502 173.407 24.5342 173.407 26.5021Z" fill="#0C0A09" />
</svg>